# xmcd
#
# Track frame offsets:
#	183
#	24553
#	49470
#	65753
#
# Disc length: 1197 seconds
#
# Revision: 1
# Processed by: cddbd v1.5.1PL0 Copyright (c) Steve Scherf et al.
# Submitted via: audiograbber 1.83.01
#
DISCID=3704ab04
DTITLE=Daisy Dee - This Beat is Technotronic (1992 RMX)
DYEAR=1992
DGENRE=Eurodance
TTITLE0=This Beat is Technotronic (1992 Techno Remix)
TTITLE1=This Beat is Technotronic (Monster Jam Edit 1990)
TTITLE2=This Beat is Technotronic (Original Radio Version)
TTITLE3=Double B. - Radiator
EXTD=
EXTT0=
EXTT1=
EXTT2=
EXTT3=
PLAYORDER=
